<svg id="Layer_1" data-name="Layer 1" xmlns="http://www.w3.org/2000/svg" viewBox="0 0 19.55 20.89"><defs><style>.cls-1{fill:#b3b3b3;}</style></defs><title>colour_mockups_20171208</title><rect class="cls-1" x="2.29" y="9.1" width="17.26" height="2.69" rx="1.34" ry="1.34"/><path class="cls-1" d="M12.11,20.47h0a1.34,1.34,0,0,0-.07-1.9L4.38,11.43a1.34,1.34,0,0,1,0-2l7.67-7.14A1.32,1.32,0,0,0,12.12.44h0A1.34,1.34,0,0,0,10.22.36L.43,9.47a1.34,1.34,0,0,0,0,2l9.79,9.11A1.34,1.34,0,0,0,12.11,20.47Z"/></svg>