<svg id="Layer_1" data-name="Layer 1" xmlns="http://www.w3.org/2000/svg" viewBox="0 0 25.26 23"><defs><style>.cls-1{fill:#b3b3b3;}</style></defs><title>colour_mockups_20171208</title><path class="cls-1" d="M18.42,0H16.49a2,2,0,0,0-2,2V3.67a2,2,0,0,0,2,2h1.83c.47.09,1.24.88,1.24,3.31,0,1.67-.38,2.35-.53,2.47a.33.33,0,0,1-.15,0l-.16,0-.3,0H12.14V7.94A2.42,2.42,0,0,0,9.72,5.52a2.36,2.36,0,0,0-1.53.57L.86,12.42a2.4,2.4,0,0,0,0,3.69l7.31,6.32A2.35,2.35,0,0,0,9.72,23a2.41,2.41,0,0,0,2.42-2.41V17.18H18l.26,0c.2,0,.42,0,.64,0a5.88,5.88,0,0,0,3.73-1.29c1.76-1.41,2.65-3.74,2.65-6.9C25.26,1.62,20.33,0,18.42,0Z"/></svg>