<?xml version="1.0" encoding="utf-8"?>
<!-- Generator: Adobe Illustrator 21.0.0, SVG Export Plug-In . SVG Version: 6.00 Build 0)  -->
<svg version="1.1" id="Layer_1" xmlns="http://www.w3.org/2000/svg" xmlns:xlink="http://www.w3.org/1999/xlink" x="0px" y="0px"
	 viewBox="0 0 22 23.2" style="enable-background:new 0 0 22 23.2;" xml:space="preserve">
<style type="text/css">
	.st0{fill:#FD6C3E;}
</style>
<title>colour_mockups_20171208</title>
<path class="st0" d="M0.7,12.9l8,9.2c1,1.3,2.9,1.5,4.2,0.4c0.2-0.1,0.3-0.3,0.4-0.4l8-9.2c1.1-1.3,0.9-3.1-0.3-4.2
	C20.5,8.2,19.8,8,19,8h-4.6V3.4C14.4,1.5,12.9,0,11,0S7.6,1.5,7.6,3.4V8H3c-1.7-0.1-3,1.2-3.1,2.9C-0.1,11.7,0.2,12.4,0.7,12.9
	L0.7,12.9z"/>
</svg>
