<?xml version="1.0" encoding="utf-8"?>
<!-- Generator: Adobe Illustrator 21.0.0, SVG Export Plug-In . SVG Version: 6.00 Build 0)  -->
<svg version="1.1" id="Layer_1" xmlns="http://www.w3.org/2000/svg" xmlns:xlink="http://www.w3.org/1999/xlink" x="0px" y="0px"
	 viewBox="0 0 20.9 12.5" style="enable-background:new 0 0 20.9 12.5;" xml:space="preserve">
<style type="text/css">
	.st0{fill:#1BAAA5;}
</style>
<path class="st0" d="M20.5,0.4L20.5,0.4c-0.5-0.5-1.4-0.5-1.9,0.1c0,0,0,0,0,0l-7.1,7.7C11,8.7,10.1,8.7,9.6,8.2
	c0,0-0.1-0.1-0.1-0.1L2.3,0.4C1.8-0.1,1-0.1,0.5,0.3c0,0,0,0,0,0l0,0c-0.5,0.5-0.6,1.3-0.1,1.9c0,0,0,0,0,0l9.1,9.8
	c0.5,0.6,1.3,0.6,1.9,0.1c0,0,0.1-0.1,0.1-0.1l9.1-9.8C21.1,1.7,21,0.9,20.5,0.4C20.5,0.4,20.5,0.4,20.5,0.4z"/>
<title>colour_mockups_20171208</title>
</svg>
