<svg xmlns="http://www.w3.org/2000/svg" xmlns:xlink="http://www.w3.org/1999/xlink" viewBox="0 0 512.45 339.66"><defs><style>.cls-1{fill:#6ba04e;}.cls-2{fill:#ffe3c4;}.cls-16,.cls-17,.cls-3,.cls-4,.cls-9{fill:none;}.cls-17,.cls-3{stroke:#c69f7b;}.cls-11,.cls-15,.cls-16,.cls-17,.cls-3,.cls-4,.cls-5,.cls-7,.cls-9{stroke-miterlimit:10;}.cls-11,.cls-3,.cls-4,.cls-5{stroke-width:0.75px;}.cls-4,.cls-5{stroke:#578949;}.cls-5{fill:url(#linear-gradient);}.cls-6{fill:#111182;opacity:0.2;}.cls-10,.cls-12,.cls-13,.cls-14,.cls-6{isolation:isolate;}.cls-16,.cls-7,.cls-9{stroke:#fff;}.cls-7,.cls-9{stroke-width:2px;}.cls-7{fill:url(#linear-gradient-2);}.cls-12,.cls-8{fill:#fff;}.cls-8{opacity:0.14;}.cls-10,.cls-13{fill:#2b388f;}.cls-10{opacity:0.22;}.cls-11{fill:#c3996b;}.cls-11,.cls-15{stroke:#a87c4f;}.cls-12,.cls-14{opacity:0.2;}.cls-13{opacity:0.12;}.cls-14{fill:#71287a;}.cls-15{stroke-width:0.5px;fill:url(#linear-gradient-3);}.cls-16{stroke-linecap:round;}</style><linearGradient id="linear-gradient" x1="0.38" y1="-3808.87" x2="512.08" y2="-3808.87" gradientTransform="matrix(1, 0, 0, -1, 0, -3659.84)" gradientUnits="userSpaceOnUse"><stop offset="0.17" stop-color="#7ac752"/><stop offset="1" stop-color="#437f66"/></linearGradient><linearGradient id="linear-gradient-2" x1="40.07" y1="-3809.47" x2="472.48" y2="-3809.47" xlink:href="#linear-gradient"/><linearGradient id="linear-gradient-3" x1="113.84" y1="-3775.95" x2="120.42" y2="-3780.23" gradientTransform="matrix(1, 0, 0, -1, 0, -3659.84)" gradientUnits="userSpaceOnUse"><stop offset="0.41" stop-color="#d8df22"/><stop offset="0.52" stop-color="#d4dc23"/><stop offset="0.63" stop-color="#c9d526"/><stop offset="0.74" stop-color="#b5c72c"/><stop offset="0.85" stop-color="#9ab533"/><stop offset="0.96" stop-color="#779e3d"/><stop offset="1" stop-color="#669242"/></linearGradient></defs><title>grasscourt</title><g id="Layer_2" data-name="Layer 2"><g id="Layer_1-2" data-name="Layer 1"><path class="cls-1" d="M510.87,180.58l-202.4,116.9a2.35,2.35,0,0,1-2.3,0c-19.3-11.1-271.9-157-304.6-175.9-.1,0-.1-.1-.2-.2H.78v15.3l306.5,176.7,204.6-117.8v-15.3l-.4-.1C511.27,180.27,511.07,180.47,510.87,180.58Z"/><polygon class="cls-2" points="0.78 136.78 0.78 162.68 307.27 339.38 511.88 221.47 511.88 195.57 307.27 313.48 0.78 136.78"/><path class="cls-3" d="M511.87,195.58v24.6a2.2,2.2,0,0,1-1.2,2l-202.2,116.6a2.35,2.35,0,0,1-2.3,0c-19.8-11.4-284.7-164.1-304.4-175.5a2.4,2.4,0,0,1-1.2-2v-24.5"/><polyline class="cls-4" points="0.47 119.58 0.47 136.28 307.27 313.48 511.88 195.38 511.88 178.65"/><path class="cls-5" d="M510.87,176.58c-32.7-18.9-285.3-164.8-304.5-175.9a2.35,2.35,0,0,0-2.3,0L1.57,117.58a2.27,2.27,0,0,0,0,4c32.7,18.9,285.3,164.7,304.5,175.8a2.35,2.35,0,0,0,2.3,0l202.5-116.8A2.27,2.27,0,0,0,510.87,176.58Z"/><polyline class="cls-6" points="307.06 339.66 307.06 298.36 511.56 180.66 511.66 221.96 307.56 339.66"/><polygon class="cls-7" points="472.48 174.28 213.47 24.77 40.08 124.97 298.98 274.48 472.48 174.28"/><polygon class="cls-8" points="195.53 35.15 213.47 24.77 472.48 174.28 455.94 183.82 195.53 35.15"/><polygon class="cls-8" points="157.03 58.26 174.97 47.89 433.98 197.39 417.44 206.94 157.03 58.26"/><polygon class="cls-8" points="117.17 79.87 135.13 69.5 394.13 219 377.59 228.55 117.17 79.87"/><polygon class="cls-8" points="80.53 102.15 98.47 91.78 357.48 241.28 340.94 250.82 80.53 102.15"/><polygon class="cls-8" points="38.6 123.92 56.55 113.55 315.55 263.05 299.01 272.6 38.6 123.92"/><line class="cls-9" x1="66.08" y1="109.08" x2="324.98" y2="258.58"/><line class="cls-9" x1="187.58" y1="40.67" x2="446.48" y2="190.18"/><line class="cls-9" x1="189.47" y1="108.48" x2="323.48" y2="185.88"/><line class="cls-9" x1="380.98" y1="152.68" x2="261.67" y2="221.58"/><line class="cls-9" x1="246.88" y1="75.27" x2="127.58" y2="144.27"/><path class="cls-10" d="M344.17,110.17a3.57,3.57,0,0,1-4.8,1.3l-14.3-8.3c-1.7-1-1.5-2.7-.6-4.3s2.4-2.7,4-1.7l14.3,8.3A3.3,3.3,0,0,1,344.17,110.17Z"/><path class="cls-11" d="M327.07,70a3.54,3.54,0,0,0-3.5,3.5v26.7c0,1.9,1.6,2.7,3.5,2.7s3.5-.7,3.5-2.7V73.48A3.48,3.48,0,0,0,327.07,70Z"/><polygon class="cls-12" points="326.38 100.58 173.57 188.68 173.57 165.18 326.38 76.97 326.38 100.58"/><polygon class="cls-13" points="189.18 197.38 338.88 110.88 326.77 103.88 177.07 190.28 189.18 197.38"/><path class="cls-10" d="M188.27,200.38a3.57,3.57,0,0,1-4.8,1.3l-14.3-8.3c-1.7-1-1.5-2.7-.6-4.3s2.4-2.7,4-1.7l14.3,8.3A3.37,3.37,0,0,1,188.27,200.38Z"/><ellipse class="cls-14" cx="119.46" cy="123.16" rx="3.1" ry="6.6" transform="translate(-46.93 165.03) rotate(-60)"/><circle class="cls-15" cx="117.18" cy="118.27" r="3.9"/><line class="cls-16" x1="325.88" y1="76.98" x2="172.88" y2="165.27"/><path class="cls-11" d="M171.08,160.18a3.54,3.54,0,0,0-3.5,3.5v26.7c0,1.9,1.6,2.7,3.5,2.7s3.5-.7,3.5-2.7v-26.7A3.48,3.48,0,0,0,171.08,160.18Z"/><line class="cls-17" x1="307.27" y1="313.37" x2="307.27" y2="339.47"/></g></g></svg>