<svg xmlns="http://www.w3.org/2000/svg" xmlns:xlink="http://www.w3.org/1999/xlink" viewBox="0 0 512.7 339.6"><defs><style>.cls-1{fill:#31825b;}.cls-16,.cls-2{stroke:#2a7c4f;}.cls-12,.cls-13,.cls-14,.cls-15,.cls-16,.cls-2,.cls-5,.cls-6,.cls-8{stroke-miterlimit:10;}.cls-2{fill:url(#linear-gradient);}.cls-3{fill:#ffe3c4;}.cls-4{fill:#111182;opacity:0.2;}.cls-10,.cls-11,.cls-4,.cls-7,.cls-9{isolation:isolate;}.cls-13,.cls-5,.cls-6{stroke:#fff;}.cls-5,.cls-6{stroke-width:2px;}.cls-5{fill:url(#linear-gradient-2);}.cls-13,.cls-14,.cls-15,.cls-16,.cls-6{fill:none;}.cls-10,.cls-7{fill:#2b388f;}.cls-7{opacity:0.22;}.cls-8{fill:#c3996b;}.cls-12,.cls-8{stroke:#a87c4f;}.cls-15,.cls-16,.cls-8{stroke-width:0.75px;}.cls-9{fill:#fff;}.cls-11,.cls-9{opacity:0.2;}.cls-10{opacity:0.12;}.cls-11{fill:#71287a;}.cls-12{stroke-width:0.5px;fill:url(#linear-gradient-3);}.cls-13{stroke-linecap:round;}.cls-14,.cls-15{stroke:#c69f7b;}</style><linearGradient id="linear-gradient" x1="0.5" y1="-3082.78" x2="512.2" y2="-3082.78" gradientTransform="matrix(1, 0, 0, -1, 0, -2933.63)" gradientUnits="userSpaceOnUse"><stop offset="0.2" stop-color="#459863"/><stop offset="1" stop-color="#267d71"/></linearGradient><linearGradient id="linear-gradient-2" x1="40.2" y1="-3083.38" x2="472.6" y2="-3083.38" gradientTransform="matrix(1, 0, 0, -1, 0, -2933.63)" gradientUnits="userSpaceOnUse"><stop offset="0.17" stop-color="#5297c7"/><stop offset="1" stop-color="#3a5395"/></linearGradient><linearGradient id="linear-gradient-3" x1="113.96" y1="-3049.86" x2="120.55" y2="-3054.14" gradientTransform="matrix(1, 0, 0, -1, 0, -2933.63)" gradientUnits="userSpaceOnUse"><stop offset="0.41" stop-color="#d8df22"/><stop offset="0.52" stop-color="#d4dc23"/><stop offset="0.63" stop-color="#c9d526"/><stop offset="0.74" stop-color="#b5c72c"/><stop offset="0.85" stop-color="#9ab533"/><stop offset="0.96" stop-color="#779e3d"/><stop offset="1" stop-color="#669242"/></linearGradient></defs><title>hardcourt</title><g id="Layer_2" data-name="Layer 2"><g id="Layer_1-2" data-name="Layer 1"><path class="cls-1" d="M511,180.7,308.6,297.6a2.35,2.35,0,0,1-2.3,0C287,286.5,34.4,140.6,1.7,121.7c-.1,0-.1-.1-.2-.2H.9v15.3L307.4,313.5,512,195.7V180.4l-.4-.1C511.4,180.4,511.2,180.6,511,180.7Z"/><path class="cls-2" d="M511,176.7C478.3,157.8,225.7,11.9,206.5.8a2.35,2.35,0,0,0-2.3,0L1.7,117.7a2.27,2.27,0,0,0,0,4C34.4,140.6,287,286.4,306.2,297.5a2.35,2.35,0,0,0,2.3,0L511,180.7A2.27,2.27,0,0,0,511,176.7Z"/><polygon class="cls-3" points="0.9 136.9 0.9 162.8 307.4 339.5 512 221.6 512 195.7 307.4 313.6 0.9 136.9"/><polyline class="cls-4" points="307.4 339.2 307.4 297.9 511.9 180.2 512 221.5 307.9 339.2"/><polygon class="cls-5" points="472.6 174.4 213.6 24.9 40.2 125.1 299.1 274.6 472.6 174.4"/><line class="cls-6" x1="66.2" y1="109.2" x2="325.1" y2="258.7"/><line class="cls-6" x1="187.7" y1="40.8" x2="446.6" y2="190.3"/><line class="cls-6" x1="189.6" y1="108.6" x2="323.6" y2="186"/><line class="cls-6" x1="381.1" y1="152.8" x2="261.8" y2="221.7"/><line class="cls-6" x1="247" y1="75.4" x2="127.7" y2="144.4"/><path class="cls-7" d="M344.3,110.3a3.57,3.57,0,0,1-4.8,1.3l-14.3-8.3c-1.7-1-1.5-2.7-.6-4.3s2.4-2.7,4-1.7l14.3,8.3A3.3,3.3,0,0,1,344.3,110.3Z"/><path class="cls-8" d="M327.2,70.1a3.54,3.54,0,0,0-3.5,3.5v26.7c0,1.9,1.6,2.7,3.5,2.7s3.5-.7,3.5-2.7V73.6A3.48,3.48,0,0,0,327.2,70.1Z"/><polygon class="cls-9" points="326.5 100.7 173.7 188.8 173.7 165.3 326.5 77.1 326.5 100.7"/><polygon class="cls-10" points="189.3 197.5 339 111 326.9 104 177.2 190.4 189.3 197.5"/><path class="cls-7" d="M188.4,200.5a3.57,3.57,0,0,1-4.8,1.3l-14.3-8.3c-1.7-1-1.5-2.7-.6-4.3s2.4-2.7,4-1.7l14.3,8.3A3.37,3.37,0,0,1,188.4,200.5Z"/><ellipse class="cls-11" cx="119.58" cy="123.29" rx="3.1" ry="6.6" transform="translate(-46.98 165.2) rotate(-60)"/><circle class="cls-12" cx="117.3" cy="118.4" r="3.9"/><line class="cls-13" x1="326" y1="77.1" x2="173" y2="165.4"/><path class="cls-8" d="M171.2,160.3a3.54,3.54,0,0,0-3.5,3.5v26.7c0,1.9,1.6,2.7,3.5,2.7s3.5-.7,3.5-2.7V163.8A3.48,3.48,0,0,0,171.2,160.3Z"/><line class="cls-14" x1="307.4" y1="313.5" x2="307.4" y2="339.6"/><path class="cls-15" d="M512,195.7v24.6a2.2,2.2,0,0,1-1.2,2L308.6,338.9a2.35,2.35,0,0,1-2.3,0C286.5,327.5,21.6,174.8,1.9,163.4a2.4,2.4,0,0,1-1.2-2V136.9"/><polyline class="cls-16" points="0.6 119.7 0.6 136.4 307.4 313.6 512 195.5 512 178.78"/></g></g></svg>