<svg xmlns="http://www.w3.org/2000/svg" xmlns:xlink="http://www.w3.org/1999/xlink" viewBox="0 0 159.65 138.54"><defs><style>.cls-1,.cls-3{fill:none;}.cls-2{clip-path:url(#clip-path);}.cls-3{stroke:#fff;stroke-linecap:round;stroke-linejoin:round;stroke-width:2px;}</style><clipPath id="clip-path" transform="translate(-28.98 -57.1)"><rect class="cls-1" width="154.65" height="220"/></clipPath></defs><title>Asset 4</title><g id="Layer_2" data-name="Layer 2"><g id="Layer_1-2" data-name="Layer 1"><g class="cls-2"><path class="cls-3" d="M68.21,188.61a22.82,22.82,0,1,1,7.28-18.34A22.67,22.67,0,0,1,68.21,188.61Z" transform="translate(-28.98 -57.1)"/><path class="cls-3" d="M68.21,188.61a22.67,22.67,0,0,1-18.87,5.76,22.77,22.77,0,0,1,26.15-24.1A22.67,22.67,0,0,1,68.21,188.61Z" transform="translate(-28.98 -57.1)"/><path class="cls-3" d="M48.9,167.65A22.67,22.67,0,0,1,30,173.42a22.77,22.77,0,0,1,26.15-24.1A22.67,22.67,0,0,1,48.9,167.65Z" transform="translate(-28.98 -57.1)"/><path class="cls-3" d="M125.5,156.4a22.82,22.82,0,1,1-18.34-7.28A22.67,22.67,0,0,1,125.5,156.4Z" transform="translate(-28.98 -57.1)"/><path class="cls-3" d="M125.5,156.4a22.67,22.67,0,0,1,5.76,18.87,22.77,22.77,0,0,1-24.1-26.15A22.67,22.67,0,0,1,125.5,156.4Z" transform="translate(-28.98 -57.1)"/><path class="cls-3" d="M104.55,175.71a22.67,22.67,0,0,1,5.76,18.87,22.77,22.77,0,0,1-24.1-26.15A22.67,22.67,0,0,1,104.55,175.71Z" transform="translate(-28.98 -57.1)"/><path class="cls-3" d="M84,149.18A22.82,22.82,0,1,1,101,139.05,22.67,22.67,0,0,1,84,149.18Z" transform="translate(-28.98 -57.1)"/><path class="cls-3" d="M84,149.18a22.67,22.67,0,0,1-18.49-6.89A22.77,22.77,0,0,1,101,139.05,22.67,22.67,0,0,1,84,149.18Z" transform="translate(-28.98 -57.1)"/><path class="cls-3" d="M81.44,120.81A22.67,22.67,0,0,1,63,113.91a22.77,22.77,0,0,1,35.42-3.24A22.67,22.67,0,0,1,81.44,120.81Z" transform="translate(-28.98 -57.1)"/><path class="cls-3" d="M157.14,117.39a22.82,22.82,0,1,1-14.19-13.71A22.67,22.67,0,0,1,157.14,117.39Z" transform="translate(-28.98 -57.1)"/><path class="cls-3" d="M157.14,117.39A22.67,22.67,0,0,1,155.3,137a22.77,22.77,0,0,1-12.35-33.35A22.67,22.67,0,0,1,157.14,117.39Z" transform="translate(-28.98 -57.1)"/><path class="cls-3" d="M130.41,127.29a22.67,22.67,0,0,1-1.84,19.64,22.77,22.77,0,0,1-12.35-33.35A22.67,22.67,0,0,1,130.41,127.29Z" transform="translate(-28.98 -57.1)"/><path class="cls-3" d="M184.22,182a22.82,22.82,0,1,1,2.06-19.62A22.67,22.67,0,0,1,184.22,182Z" transform="translate(-28.98 -57.1)"/><path class="cls-3" d="M184.22,182a22.67,22.67,0,0,1-16.61,10.65,22.77,22.77,0,0,1,18.67-30.27A22.67,22.67,0,0,1,184.22,182Z" transform="translate(-28.98 -57.1)"/><path class="cls-3" d="M160,167a22.67,22.67,0,0,1-16.61,10.65A22.77,22.77,0,0,1,162,147.39,22.67,22.67,0,0,1,160,167Z" transform="translate(-28.98 -57.1)"/><path class="cls-3" d="M128.42,69.38a22.82,22.82,0,1,1-16.36-11A22.67,22.67,0,0,1,128.42,69.38Z" transform="translate(-28.98 -57.1)"/><path class="cls-3" d="M128.42,69.38A22.67,22.67,0,0,1,130,89a22.77,22.77,0,0,1-18-30.7A22.67,22.67,0,0,1,128.42,69.38Z" transform="translate(-28.98 -57.1)"/><path class="cls-3" d="M103.82,83.77a22.67,22.67,0,0,1,1.6,19.66,22.77,22.77,0,0,1-18-30.7A22.67,22.67,0,0,1,103.82,83.77Z" transform="translate(-28.98 -57.1)"/></g></g></g></svg>