<svg id="Layer_1" data-name="Layer 1" xmlns="http://www.w3.org/2000/svg" viewBox="0 0 181.54 227.59"><defs><style>.cls-1{fill:none;stroke:#0f6160;stroke-linecap:round;stroke-linejoin:round;stroke-width:12px;}</style></defs><title>hittingSmall</title><g id="Layer_2" data-name="Layer 2"><g id="Layer_1-2" data-name="Layer 1-2"><path class="cls-1" d="M36.28,27.83a18.62,18.62,0,1,1,.17-16.1A18.62,18.62,0,0,1,36.28,27.83Z" transform="translate(5.05 5.02)"/><path class="cls-1" d="M36.28,27.83A18.5,18.5,0,0,1,23.6,37.75a18.58,18.58,0,0,1,9-24.69,18.11,18.11,0,0,1,3.86-1.31A18.48,18.48,0,0,1,36.28,27.83Z" transform="translate(5.05 5.02)"/><path class="cls-1" d="M15.44,17.54A18.5,18.5,0,0,1,2.76,27.46a18.58,18.58,0,0,1,9-24.69,18.11,18.11,0,0,1,3.86-1.31A18.48,18.48,0,0,1,15.44,17.54Z" transform="translate(5.05 5.02)"/><line class="cls-1" x1="97.08" y1="93.35" x2="91.5" y2="97.74"/><line class="cls-1" x1="103.12" y1="96.04" x2="103.12" y2="102.25"/><line class="cls-1" x1="103.12" y1="96.04" x2="103.12" y2="102.25"/><line class="cls-1" x1="109.14" y1="93.85" x2="114.72" y2="98.24"/><path class="cls-1" d="M46.92,19.6c60-2.71,49.81,61.73,49.81,61.73s25.48-39.45,73.76-6.78" transform="translate(5.05 5.02)"/><path class="cls-1" d="M129.81,33.06C103.91,17.9,69.35,28.85,52.57,57.5c-.41.67-.79,1.39-1.16,2.06s-.59,1.13-.89,1.72c-.21.42-.46.87-.64,1.3-.43.88-.86,1.79-1.22,2.67L48,67.05c-.27.65-.51,1.31-.74,2s-.44,1.28-.64,2c-.35,1.09-.69,2.11-.94,3.21-.11.4-.21.73-.32,1.13-.26,1.2-.51,2.37-.74,3.57-.1.67-.2,1.34-.34,2v.41c-.19,1.17-.31,2.35-.43,3.53a14.49,14.49,0,0,1-.12,1.49c-.06,1.29-.12,2.58-.09,3.88.13,1.78.34,4.74.57,8.51a.17.17,0,0,1,0,.1c1.1,16.06,4.3,50.42,4.27,66.47l-3.12,5.27-.13.23a3.56,3.56,0,0,1,2.47-.13,2.79,2.79,0,0,1,.68.31l2.7,1.6a3.39,3.39,0,0,1,1.65,2.25l.17-.29,2.92-5c13.89-7.93,44-22.73,58.54-29.64h.07c3.4-1.63,6.09-2.89,7.7-3.65h0l1.2-.7c.69-.41,1.41-.84,2.11-1.29.4-.27.81-.57,1.21-.83,1-.65,2-1.37,2.9-2.09.11-.09.22-.15.33-.24l1.56-1.27c1-.79,1.86-1.58,2.76-2.38.3-.28.57-.56.83-.84.83-.77,1.59-1.54,2.35-2.38l1.38-1.5c.46-.53.93-1.06,1.35-1.6l1.25-1.54c.59-.76,1.18-1.55,1.7-2.35.31-.38.56-.8.83-1.18.36-.54.72-1.09,1.05-1.63s.85-1.34,1.26-2C163,83.72,155.66,48.22,129.81,33.06ZM62.73,156,58,153.23l-1.66-27.74a11.55,11.55,0,0,0,.79,1.18l.47.66c.24.32.47.61.68.9s.48.58.69.87.5.56.72.85l.72.8c.41.44.82.86,1.23,1.27.24.24.51.51.78.75l.78.72.81.7c.47.4,1,.79,1.49,1.17a5.52,5.52,0,0,0,.62.46,32.36,32.36,0,0,0,3.21,2.12c1.11.65,2.25,1.24,3.4,1.79l.72.31c.59.25,1.18.49,1.75.71l1,.35a6.93,6.93,0,0,0,1,.34l1,.32c.57.16,1.14.33,1.72.44a6.93,6.93,0,0,0,1,.24l1.07.22,1.1.19,1.14.14.82.08c.45.07.93.09,1.38.14Z" transform="translate(5.05 5.02)"/><path class="cls-1" d="M138.37,107.76c-14,23.85-42.73,32.94-64.24,20.35S46.51,86,60.47,62.13s42.7-32.94,64.21-20.32S152.3,83.94,138.37,107.76Z" transform="translate(5.05 5.02)"/><path class="cls-1" d="M33.06,215.13l-.29.5a2.66,2.66,0,0,1-3.58.48l-8-4.69c-1.35-.79-2-2.31-1.34-3.36l.29-.5a2.41,2.41,0,0,1,2.94-.77l20.47-34.95a2.79,2.79,0,0,1,1.38-1.2,3.94,3.94,0,0,1,3.41.32l2.87,1.68A3.87,3.87,0,0,1,53,175a2.79,2.79,0,0,1-.26,2.24l-20.43,35A2.41,2.41,0,0,1,33.06,215.13Z" transform="translate(5.05 5.02)"/></g></g></svg>