<?xml version="1.0" encoding="utf-8"?>
<!-- Generator: Adobe Illustrator 21.0.0, SVG Export Plug-In . SVG Version: 6.00 Build 0)  -->
<svg version="1.1" id="Layer_1" xmlns="http://www.w3.org/2000/svg" xmlns:xlink="http://www.w3.org/1999/xlink" x="0px" y="0px"
	 viewBox="0 0 25.3 23" style="enable-background:new 0 0 25.3 23;" xml:space="preserve">
<style type="text/css">
	.st0{fill:#FD6C3E;}
</style>
<title>colour_mockups_20171208</title>
<path class="st0" d="M18.4,0h-1.9c-1.1,0-2,0.9-2,2v1.7c0,1.1,0.9,2,2,2h1.8c0.5,0.1,1.2,0.9,1.2,3.3c0,1.7-0.4,2.4-0.5,2.5
	c0,0-0.1,0-0.1,0h-0.2h-0.3h-6.3V7.9c0-1.3-1.1-2.4-2.4-2.4c-0.6,0-1.1,0.2-1.5,0.6l-7.3,6.3c-1,0.8-1.2,2.4-0.3,3.4
	c0.1,0.1,0.2,0.2,0.3,0.3l7.3,6.3c0.4,0.4,1,0.6,1.6,0.6c1.3,0,2.4-1.1,2.4-2.4c0,0,0,0,0,0v-3.4H18h0.3c0.2,0,0.4,0,0.6,0
	c1.4,0,2.7-0.4,3.7-1.3c1.8-1.4,2.6-3.7,2.6-6.9C25.3,1.6,20.3,0,18.4,0z"/>
</svg>
