<svg id="Layer_1" data-name="Layer 1" xmlns="http://www.w3.org/2000/svg" viewBox="0 0 200.62 239.09"><defs><style>.cls-1{fill:none;}.cls-1,.cls-2{stroke:#0f6160;stroke-linecap:round;stroke-linejoin:round;stroke-width:12px;}.cls-2{fill:#fff;}</style></defs><title>matchSmall</title><g id="Layer_2" data-name="Layer 2"><g id="Layer_1-2" data-name="Layer 1-2"><path class="cls-1" d="M8.67,139.16c.35.58.7,1.18,1.08,1.72s.59.93.9,1.39.45.68.71,1c.45.68,1,1.36,1.45,2l1.06,1.32c.37.46.76.91,1.16,1.37l1.18,1.28a25.16,25.16,0,0,0,2,2c.23.24.46.48.71.71.77.68,1.53,1.36,2.36,2L22.61,155l.28.2c.79.62,1.64,1.23,2.48,1.78l1,.71c.59.38,1.21.75,1.8,1.1l1,.59h0c1.37.65,3.66,1.72,6.56,3.11h.06c12.4,5.89,38.09,18.52,49.94,25.29L88.22,192l.14.25a2.9,2.9,0,0,1,1.4-1.92l2.3-1.37a2.51,2.51,0,0,1,.58-.26,3,3,0,0,1,2.1.11l-.11-.19L92,184.16c0-13.69,2.71-43,3.64-56.7a.14.14,0,0,1,0-.09c.2-3.22.38-5.74.49-7.26,0-1.11,0-2.21-.07-3.31,0-.43-.08-.83-.1-1.27-.1-1-.2-2-.36-3v-.35c-.12-.57-.2-1.14-.29-1.71-.19-1-.41-2-.63-3-.09-.34-.18-.62-.27-1-.21-.94-.5-1.81-.8-2.74-.17-.56-.34-1.1-.55-1.66s-.4-1.12-.64-1.68L91.94,99c-.31-.75-.68-1.53-1-2.28-.15-.36-.37-.75-.55-1.11s-.48-1-.76-1.46-.64-1.18-1-1.76C74.29,67.9,44.8,58.56,22.71,71.5S-5.64,114.72,8.67,139.16Zm50.93,26.3a7.74,7.74,0,0,0,1.17-.12l.7-.07,1-.12.94-.16.92-.18a5.45,5.45,0,0,0,.89-.2c.49-.1,1-.24,1.47-.38l.86-.27a6.69,6.69,0,0,0,.86-.29l.88-.29,1.49-.61.61-.27c1-.46,2-1,2.9-1.53A27.28,27.28,0,0,0,77,159.15a4.09,4.09,0,0,0,.53-.4c.45-.32.87-.66,1.27-1l.69-.59c.23-.21.46-.41.67-.62l.67-.64c.35-.35.7-.71,1-1.09l.62-.68c.18-.25.41-.47.61-.72s.41-.5.59-.74l.58-.77.4-.57a9.68,9.68,0,0,0,.67-1L84,174l-4,2.32Z" transform="translate(5.01 5)"/><path class="cls-1" d="M15.41,135.22c11.92,20.35,36.46,28.1,54.81,17.36s23.56-35.94,11.64-56.29S45.43,68.19,27.08,79,3.52,114.9,15.41,135.22Z" transform="translate(5.01 5)"/><path class="cls-2" d="M105.25,226.82l.25.43a2.23,2.23,0,0,0,3.06.41l6.83-4a2.23,2.23,0,0,0,1.14-2.87l-.25-.43a2.06,2.06,0,0,0-2.51-.66L96.3,189.89a2.36,2.36,0,0,0-1.18-1,3.33,3.33,0,0,0-2.9.27l-2.45,1.43a3.26,3.26,0,0,0-1.56,2,2.37,2.37,0,0,0,.22,1.91l17.46,29.81A2,2,0,0,0,105.25,226.82Z" transform="translate(5.01 5)"/><path class="cls-2" d="M50.24,44.49a18.83,18.83,0,1,0-.17-16.28A18.83,18.83,0,0,0,50.24,44.49Z" transform="translate(5.01 5)"/><path class="cls-2" d="M50.24,44.49a18.7,18.7,0,0,0,12.82,10,18.77,18.77,0,0,0-13-26.3A18.69,18.69,0,0,0,50.24,44.49Z" transform="translate(5.01 5)"/><path class="cls-2" d="M71.32,34.08a18.7,18.7,0,0,0,12.82,10,18.77,18.77,0,0,0-13-26.3A18.69,18.69,0,0,0,71.32,34.08Z" transform="translate(5.01 5)"/><path class="cls-1" d="M98.13,40.29c-.16.65-.34,1.33-.46,2s-.24,1.07-.35,1.62a11.08,11.08,0,0,0-.21,1.21c-.17.8-.29,1.63-.39,2.44-.06.58-.11,1.1-.18,1.68s-.11,1.18-.15,1.78l-.07,1.73c0,1,0,1.9,0,2.86v1c.06,1,.12,2,.23,3.1l.17,1.71a.68.68,0,0,0,.06.34c.12,1,.29,2,.49,3,.08.4.15.83.23,1.23.15.68.33,1.39.49,2l.3,1.14h0c.51,1.43,1.37,3.81,2.44,6.84h0V76c4.6,12.94,13.84,40,17.43,53.19L117,134.11l-.08.28a2.91,2.91,0,0,1,2.35-.36l2.6.66a2.57,2.57,0,0,1,.6.23,3,3,0,0,1,1.41,1.56l.06-.21,1.3-5.06c9.66-9.69,32.32-28.49,42.67-37.52H168c2.41-2.14,4.32-3.79,5.48-4.79.81-.76,1.55-1.57,2.29-2.39.27-.34.53-.65.83-1,.64-.78,1.28-1.57,1.87-2.39l.22-.27c.32-.48.66-1,1-1.42.59-.86,1.14-1.72,1.71-2.6l.49-.87c.51-.81.92-1.63,1.37-2.5.28-.52.53-1,.79-1.56s.51-1.08.74-1.64l.67-1.51c.31-.75.6-1.56.87-2.35.15-.36.27-.79.4-1.17a15.6,15.6,0,0,0,.5-1.57c.13-.57.38-1.29.54-1.95,7.17-27.41-7.08-54.86-31.84-61.33S105.3,12.88,98.13,40.29ZM115.55,94.9c.3.24.6.52.91.75l.55.44c.26.22.51.38.77.6l.78.55.78.52a5.58,5.58,0,0,0,.77.49c.42.28.86.53,1.3.77l.8.42a6.09,6.09,0,0,0,.81.4l.83.42c.47.21,1,.42,1.48.62l.62.24c1,.36,2.07.69,3.13,1a29.47,29.47,0,0,0,3.21.66,4.63,4.63,0,0,0,.65.1c.54.09,1.08.15,1.6.19l.91.07h4.26a3.82,3.82,0,0,0,.94-.08c.32-.08.64-.06.94-.11l1-.13.68-.12a9.61,9.61,0,0,0,1.19-.23L126.73,118.2l-4.49-1.2Z" transform="translate(5.01 5)"/><path class="cls-1" d="M105.68,42.27c-6,22.81,5.91,45.65,26.48,51s42.08-8.75,48-31.57-5.89-45.63-26.47-51S111.65,19.49,105.68,42.27Z" transform="translate(5.01 5)"/><path class="cls-2" d="M104.44,170.56l-.12.48a2.23,2.23,0,0,0,1.87,2.45l7.66,2a2.22,2.22,0,0,0,2.83-1.22l.12-.48a2.06,2.06,0,0,0-1.31-2.24l8.73-33.43a2.39,2.39,0,0,0-.11-1.56,3.36,3.36,0,0,0-2.25-1.86l-2.74-.72a3.27,3.27,0,0,0-2.54.33,2.41,2.41,0,0,0-1.19,1.51l-8.73,33.43A2,2,0,0,0,104.44,170.56Z" transform="translate(5.01 5)"/></g></g></svg>