<svg xmlns="http://www.w3.org/2000/svg" xmlns:xlink="http://www.w3.org/1999/xlink" viewBox="0 0 171.49 217.58"><defs><style>.cls-1,.cls-3{fill:none;}.cls-2{clip-path:url(#clip-path);}.cls-3{stroke:#fff;stroke-linecap:round;stroke-linejoin:round;stroke-width:2px;}</style><clipPath id="clip-path" transform="translate(-15.02 -16.49)"><rect class="cls-1" width="154.65" height="220"/></clipPath></defs><title>Asset 5</title><g id="Layer_2" data-name="Layer 2"><g id="Layer_1-2" data-name="Layer 1"><g class="cls-2"><path class="cls-3" d="M51.3,44.33a18.62,18.62,0,1,1,.17-16.1A18.5,18.5,0,0,1,51.3,44.33Z" transform="translate(-15.02 -16.49)"/><path class="cls-3" d="M51.3,44.33a18.5,18.5,0,0,1-12.68,9.92,18.58,18.58,0,0,1,12.85-26A18.5,18.5,0,0,1,51.3,44.33Z" transform="translate(-15.02 -16.49)"/><path class="cls-3" d="M30.46,34a18.5,18.5,0,0,1-12.68,9.92,18.58,18.58,0,0,1,12.85-26A18.5,18.5,0,0,1,30.46,34Z" transform="translate(-15.02 -16.49)"/><line class="cls-3" x1="92.03" y1="88.33" x2="86.45" y2="92.72"/><line class="cls-3" x1="98.07" y1="91.02" x2="98.07" y2="97.23"/><line class="cls-3" x1="98.07" y1="91.02" x2="98.07" y2="97.23"/><line class="cls-3" x1="104.09" y1="88.83" x2="109.67" y2="93.22"/><path class="cls-3" d="M61.94,36.09c60-2.71,49.81,61.73,49.81,61.73S137.23,58.37,185.51,91" transform="translate(-15.02 -16.49)"/><path class="cls-3" d="M144.83,49.55C118.93,34.39,84.37,45.34,67.6,74c-.41.67-.79,1.39-1.16,2.06s-.59,1.13-.89,1.72c-.21.42-.46.87-.64,1.3-.43.88-.86,1.79-1.22,2.67L63,83.55c-.27.65-.51,1.31-.74,2s-.44,1.28-.64,1.95c-.35,1.09-.69,2.11-.94,3.21-.11.4-.21.73-.32,1.13-.26,1.2-.51,2.37-.74,3.57-.1.67-.2,1.34-.34,2l0,.41c-.19,1.17-.31,2.35-.43,3.53,0,.51-.07,1-.12,1.49-.06,1.29-.12,2.58-.09,3.88.13,1.78.34,4.74.57,8.51a.12.12,0,0,1,0,.1c1.1,16.06,4.3,50.42,4.27,66.47L60.33,187l-.13.23a3.55,3.55,0,0,1,2.47-.13,2.93,2.93,0,0,1,.68.31l2.7,1.6a3.39,3.39,0,0,1,1.65,2.25l.17-.29,2.92-5c13.89-7.93,44-22.73,58.54-29.64,0,0,0,0,.07,0s0,0,0,0h0c3.4-1.63,6.09-2.89,7.7-3.65h0l1.2-.7c.69-.41,1.41-.84,2.11-1.29.4-.27.81-.57,1.21-.83,1-.65,2-1.37,2.9-2.09.11-.09.22-.15.33-.24l1.56-1.27c1-.79,1.86-1.58,2.76-2.38.3-.28.57-.56.83-.84.83-.77,1.59-1.54,2.35-2.38l1.38-1.5c.46-.53.93-1.06,1.35-1.6l1.25-1.54c.59-.76,1.18-1.55,1.7-2.35.31-.38.56-.8.83-1.18.36-.54.72-1.09,1.05-1.63s.85-1.34,1.26-2C178.06,100.21,170.68,64.71,144.83,49.55ZM77.75,172.44l-4.7-2.72L71.39,142a11.58,11.58,0,0,0,.79,1.18l.47.66c.24.32.47.61.68.9s.48.58.69.87.5.56.72.85l.72.8c.41.44.82.86,1.23,1.27.24.24.51.51.78.75s.51.48.78.72l.81.7c.47.4,1,.79,1.49,1.17a5.55,5.55,0,0,0,.62.46,31.88,31.88,0,0,0,3.21,2.12c1.11.65,2.25,1.24,3.4,1.79l.72.31c.59.25,1.18.49,1.75.71l1,.35a7.34,7.34,0,0,0,1,.34l1,.32c.57.16,1.14.33,1.72.44a6.88,6.88,0,0,0,1,.24l1.07.22,1.1.19,1.14.14.82.08c.45.07.93.09,1.38.14Z" transform="translate(-15.02 -16.49)"/><path class="cls-3" d="M153.39,124.25c-14,23.85-42.73,32.94-64.24,20.35s-27.62-42.13-13.65-66S118.2,45.68,139.7,58.3,167.32,100.43,153.39,124.25Z" transform="translate(-15.02 -16.49)"/><path class="cls-3" d="M48.08,231.62l-.29.5c-.61,1-2.24,1.27-3.58.48l-8-4.69c-1.35-.79-1.95-2.31-1.34-3.36l.29-.5a2.42,2.42,0,0,1,2.94-.77l20.47-34.95a2.77,2.77,0,0,1,1.38-1.2,3.92,3.92,0,0,1,3.41.32l2.87,1.68a3.86,3.86,0,0,1,1.83,2.37,2.81,2.81,0,0,1-.26,2.24L47.33,228.69A2.4,2.4,0,0,1,48.08,231.62Z" transform="translate(-15.02 -16.49)"/></g></g></g></svg>