<svg id="Layer_1" data-name="Layer 1" xmlns="http://www.w3.org/2000/svg" viewBox="0 0 33.47 39.99"><defs><style>.cls-1{fill:#b3b3b3;}</style></defs><title>pointyArrow</title><path class="cls-1" d="M33.47,38.06a1.34,1.34,0,0,0-1.39-1.29L25.22,37c7.39-9.05,7.72-22.14.39-30.22C19.84.46,9.95-1.71,1,1.42A1.5,1.5,0,0,0,2,4.25c7.82-2.74,16.42-.89,21.39,4.59,6.79,7.49,5.91,20-2,27.94a1.46,1.46,0,0,0-.24.36,1.34,1.34,0,0,1-1-1.33l.35-10.48a1.34,1.34,0,0,0-1.3-1.38h0a1.34,1.34,0,0,0-1.38,1.29L17.43,38.6A1.34,1.34,0,0,0,18.82,40l13.36-.53a1.34,1.34,0,0,0,1.29-1.39Z"/></svg>