<svg id="Layer_1" data-name="Layer 1" xmlns="http://www.w3.org/2000/svg" viewBox="0 0 169.72 148.55"><defs><style>.cls-1{fill:none;stroke:#0f6160;stroke-linecap:round;stroke-linejoin:round;stroke-width:12px;}</style></defs><title>practiceSmall</title><g id="Layer_2" data-name="Layer 2"><g id="Layer_1-2" data-name="Layer 1-2"><path class="cls-1" d="M39.24,131.51a22.83,22.83,0,1,1,7.28-18.34A22.82,22.82,0,0,1,39.24,131.51Z" transform="translate(5.07 4.96)"/><path class="cls-1" d="M39.24,131.51a22.67,22.67,0,0,1-18.87,5.76A22.78,22.78,0,0,1,41.49,113a23.5,23.5,0,0,1,5,.21A22.67,22.67,0,0,1,39.24,131.51Z" transform="translate(5.07 4.96)"/><path class="cls-1" d="M19.93,110.55a22.67,22.67,0,0,1-18.87,5.76A22.78,22.78,0,0,1,22.18,92a23.5,23.5,0,0,1,5,.21A22.67,22.67,0,0,1,19.93,110.55Z" transform="translate(5.07 4.96)"/><path class="cls-1" d="M96.53,99.3A22.82,22.82,0,1,1,78.19,92,22.83,22.83,0,0,1,96.53,99.3Z" transform="translate(5.07 4.96)"/><path class="cls-1" d="M96.53,99.3a22.67,22.67,0,0,1,5.76,18.87A22.78,22.78,0,0,1,78,97.05a22.45,22.45,0,0,1,.21-5A22.65,22.65,0,0,1,96.53,99.3Z" transform="translate(5.07 4.96)"/><path class="cls-1" d="M75.57,118.61a22.67,22.67,0,0,1,5.76,18.87A22.78,22.78,0,0,1,57,116.36a23.5,23.5,0,0,1,.21-5A22.67,22.67,0,0,1,75.57,118.61Z" transform="translate(5.07 4.96)"/><path class="cls-1" d="M55.06,92.08A22.81,22.81,0,1,1,72,82,22.81,22.81,0,0,1,55.06,92.08Z" transform="translate(5.07 4.96)"/><path class="cls-1" d="M55.06,92.08a22.66,22.66,0,0,1-18.49-6.89,22.76,22.76,0,0,1,31.54-6.47A22.33,22.33,0,0,1,72,82,22.64,22.64,0,0,1,55.06,92.08Z" transform="translate(5.07 4.96)"/><path class="cls-1" d="M52.46,63.7A22.66,22.66,0,0,1,34,56.81a22.78,22.78,0,0,1,35.42-3.24A22.7,22.7,0,0,1,52.46,63.7Z" transform="translate(5.07 4.96)"/><path class="cls-1" d="M128.16,60.29A22.83,22.83,0,1,1,114,46.58,22.82,22.82,0,0,1,128.16,60.29Z" transform="translate(5.07 4.96)"/><path class="cls-1" d="M128.16,60.29a22.65,22.65,0,0,1-1.84,19.64A22.77,22.77,0,0,1,114,46.58,22.67,22.67,0,0,1,128.16,60.29Z" transform="translate(5.07 4.96)"/><path class="cls-1" d="M101.44,70.18A22.68,22.68,0,0,1,99.6,89.83,22.77,22.77,0,0,1,87.25,56.48,22.68,22.68,0,0,1,101.44,70.18Z" transform="translate(5.07 4.96)"/><path class="cls-1" d="M155.25,124.87a22.81,22.81,0,1,1,2.06-19.62A22.82,22.82,0,0,1,155.25,124.87Z" transform="translate(5.07 4.96)"/><path class="cls-1" d="M155.25,124.87a22.68,22.68,0,0,1-16.61,10.65,22.77,22.77,0,0,1,13.77-29.11,22.4,22.4,0,0,1,4.9-1.16A22.67,22.67,0,0,1,155.25,124.87Z" transform="translate(5.07 4.96)"/><path class="cls-1" d="M131,109.91a22.68,22.68,0,0,1-16.61,10.65A22.78,22.78,0,0,1,133,90.29,22.66,22.66,0,0,1,131,109.91Z" transform="translate(5.07 4.96)"/><path class="cls-1" d="M99.44,12.28a22.81,22.81,0,1,1-16.36-11A22.81,22.81,0,0,1,99.44,12.28Z" transform="translate(5.07 4.96)"/><path class="cls-1" d="M99.44,12.28A22.66,22.66,0,0,1,101,32,22.77,22.77,0,0,1,81.72,6.16,22.46,22.46,0,0,1,83,1.25,22.67,22.67,0,0,1,99.44,12.28Z" transform="translate(5.07 4.96)"/><path class="cls-1" d="M74.84,26.67a22.64,22.64,0,0,1,1.6,19.66A22.77,22.77,0,0,1,57.16,20.54a22.46,22.46,0,0,1,1.28-4.91A22.66,22.66,0,0,1,74.84,26.67Z" transform="translate(5.07 4.96)"/></g></g></svg>