<svg xmlns="http://www.w3.org/2000/svg" xmlns:xlink="http://www.w3.org/1999/xlink" viewBox="0 0 154.65 220"><defs><style>.cls-1,.cls-3{fill:none;}.cls-2{clip-path:url(#clip-path);}.cls-3{stroke:#fff;stroke-linecap:round;stroke-linejoin:round;stroke-width:2px;}</style><clipPath id="clip-path" transform="translate(0 -20.51)"><rect class="cls-1" x="42.25" width="154.65" height="220"/></clipPath></defs><title>Asset 6</title><g id="Layer_2" data-name="Layer 2"><g id="Layer_1-2" data-name="Layer 1"><g class="cls-2"><path class="cls-3" d="M8.67,159.68c.35.58.7,1.18,1.08,1.72s.59.93.9,1.39.45.68.71,1c.45.68,1,1.36,1.45,2l1.06,1.32c.37.46.76.91,1.16,1.37l1.18,1.28c.65.72,1.3,1.38,2,2,.23.24.46.48.71.71.77.68,1.53,1.36,2.36,2l1.33,1.09.28.2c.79.62,1.64,1.23,2.48,1.78l1,.71c.59.38,1.21.75,1.8,1.1l1,.59h0c1.37.65,3.66,1.72,6.56,3.11h0s0,0,0,0,.06,0,.06,0c12.4,5.89,38.09,18.52,49.94,25.29l2.49,4.22.14.25a2.89,2.89,0,0,1,1.4-1.92l2.3-1.37a2.5,2.5,0,0,1,.58-.26,3,3,0,0,1,2.1.11l-.11-.19-2.66-4.5c0-13.69,2.71-43,3.64-56.7a.11.11,0,0,1,0-.09c.2-3.22.38-5.74.49-7.26,0-1.11,0-2.21-.07-3.31,0-.43-.08-.83-.1-1.27-.1-1-.2-2-.36-3l0-.35c-.12-.57-.2-1.14-.29-1.71-.19-1-.41-2-.63-3-.09-.34-.18-.62-.27-1-.21-.94-.5-1.81-.8-2.74-.17-.56-.34-1.1-.55-1.66s-.4-1.12-.64-1.68l-.59-1.54c-.31-.75-.68-1.53-1-2.28-.15-.36-.37-.75-.55-1.11s-.48-1-.76-1.46-.64-1.18-1-1.76C74.29,88.41,44.8,79.08,22.71,92S-5.64,135.23,8.67,159.68ZM59.6,186c.38,0,.79-.06,1.17-.12l.7-.07,1-.12.94-.16.92-.18a5.87,5.87,0,0,0,.89-.2c.49-.1,1-.24,1.47-.38l.86-.27a6.26,6.26,0,0,0,.86-.29l.88-.29c.48-.19,1-.4,1.49-.61l.61-.27c1-.46,2-1,2.9-1.53A27.19,27.19,0,0,0,77,179.67a4.73,4.73,0,0,0,.53-.4c.45-.32.87-.66,1.27-1l.69-.59c.23-.21.46-.41.67-.62s.46-.43.67-.64c.35-.35.7-.71,1.05-1.09l.62-.68c.18-.25.41-.47.61-.72s.41-.5.59-.74l.58-.77.4-.57a9.88,9.88,0,0,0,.67-1l-1.41,23.66-4,2.32Z" transform="translate(0 -20.51)"/><path class="cls-3" d="M15.41,155.74c11.92,20.35,36.46,28.1,54.81,17.36s23.56-35.94,11.64-56.29S45.43,88.71,27.08,99.47,3.52,135.41,15.41,155.74Z" transform="translate(0 -20.51)"/><path class="cls-3" d="M105.25,247.33l.25.43a2.23,2.23,0,0,0,3.06.41l6.83-4a2.23,2.23,0,0,0,1.14-2.87l-.25-.43a2.06,2.06,0,0,0-2.51-.66L96.3,210.4a2.36,2.36,0,0,0-1.18-1,3.35,3.35,0,0,0-2.9.27l-2.45,1.43a3.3,3.3,0,0,0-1.56,2,2.4,2.4,0,0,0,.22,1.91l17.46,29.81A2,2,0,0,0,105.25,247.33Z" transform="translate(0 -20.51)"/><path class="cls-3" d="M50.24,65a18.83,18.83,0,1,0-.17-16.28A18.7,18.7,0,0,0,50.24,65Z" transform="translate(0 -20.51)"/><path class="cls-3" d="M50.24,65A18.7,18.7,0,0,0,63.06,75a18.78,18.78,0,0,0-13-26.3A18.7,18.7,0,0,0,50.24,65Z" transform="translate(0 -20.51)"/><path class="cls-3" d="M71.32,54.59a18.7,18.7,0,0,0,12.82,10,18.78,18.78,0,0,0-13-26.3A18.7,18.7,0,0,0,71.32,54.59Z" transform="translate(0 -20.51)"/><path class="cls-3" d="M98.13,60.8c-.16.65-.34,1.33-.46,2s-.24,1.07-.35,1.62-.17.8-.21,1.21c-.17.8-.29,1.63-.39,2.44-.06.58-.11,1.1-.18,1.68s-.11,1.18-.15,1.78l-.07,1.73c0,1-.05,1.9,0,2.86,0,.33,0,.66,0,1,.06,1,.12,2,.23,3.1l.17,1.71c0,.12,0,.22.06.34.12,1,.29,2,.49,3,.08.4.15.83.23,1.23.15.68.33,1.39.49,2l.3,1.14,0,0c.51,1.43,1.37,3.81,2.44,6.84l0,0s0,0,0,0,0,0,0,.06c4.6,12.94,13.84,40,17.43,53.19L117,154.63l-.08.28a2.89,2.89,0,0,1,2.35-.36l2.6.66a2.5,2.5,0,0,1,.6.23,3,3,0,0,1,1.41,1.56l.06-.21,1.3-5.06c9.66-9.69,32.32-28.49,42.67-37.52a.11.11,0,0,1,.08,0c2.41-2.14,4.32-3.79,5.48-4.79.81-.76,1.55-1.57,2.29-2.39.27-.34.53-.65.83-1,.64-.78,1.28-1.57,1.87-2.39l.22-.27c.32-.48.66-1,1-1.42.59-.86,1.14-1.72,1.71-2.6l.49-.87c.51-.81.92-1.63,1.37-2.5.28-.52.53-1,.79-1.56s.51-1.08.74-1.64l.67-1.51c.31-.75.6-1.56.87-2.35.15-.36.27-.79.4-1.17s.37-1,.5-1.57.38-1.29.54-1.95c7.17-27.41-7.08-54.86-31.84-61.33S105.3,33.4,98.13,60.8Zm17.42,54.61c.3.24.6.52.91.75l.55.44c.26.22.51.38.77.6l.78.55.78.52a5.87,5.87,0,0,0,.77.49c.42.28.86.53,1.3.77l.8.42a6.26,6.26,0,0,0,.81.4l.83.42c.47.21,1,.42,1.48.62l.62.24c1,.36,2.07.69,3.13,1a27.19,27.19,0,0,0,3.21.66,4.73,4.73,0,0,0,.65.1c.54.09,1.08.15,1.6.19l.91.07.91,0c.31,0,.63,0,.92,0,.5,0,1,0,1.51,0l.92,0c.3,0,.62,0,.94-.08s.64-.06.94-.11l1-.13.68-.12a9.88,9.88,0,0,0,1.19-.23l-17.73,15.73-4.48-1.19Z" transform="translate(0 -20.51)"/><path class="cls-3" d="M105.68,62.78c-6,22.81,5.91,45.65,26.48,51s42.08-8.75,48-31.57-5.89-45.63-26.47-51S111.65,40,105.68,62.78Z" transform="translate(0 -20.51)"/><path class="cls-3" d="M104.44,191.07l-.12.48a2.23,2.23,0,0,0,1.87,2.45l7.66,2a2.23,2.23,0,0,0,2.83-1.22l.12-.48a2.06,2.06,0,0,0-1.31-2.24l8.73-33.43a2.36,2.36,0,0,0-.11-1.56,3.35,3.35,0,0,0-2.25-1.86l-2.74-.72a3.3,3.3,0,0,0-2.54.33,2.4,2.4,0,0,0-1.19,1.51l-8.73,33.43A2,2,0,0,0,104.44,191.07Z" transform="translate(0 -20.51)"/></g></g></g></svg>