<?xml version="1.0" encoding="utf-8"?>
<!-- Generator: Adobe Illustrator 21.0.0, SVG Export Plug-In . SVG Version: 6.00 Build 0)  -->
<svg version="1.1" id="Layer_1" xmlns="http://www.w3.org/2000/svg" xmlns:xlink="http://www.w3.org/1999/xlink" x="0px" y="0px"
	 viewBox="0 0 22.8 22.8" style="enable-background:new 0 0 22.8 22.8;" xml:space="preserve">
<style type="text/css">
	.st0{fill:#94D142;}
</style>
<path class="st0" d="M0,9.6c0,0.3,0.2,0.5,0.4,0.6c0,0,0.1,0,0.1,0C3,10,5.4,8.9,7.2,7.1C8.9,5.3,10,3,10.3,0.5
	c0-0.3-0.2-0.5-0.5-0.5c0,0-0.1,0-0.1,0C4.7,0.7,0.8,4.6,0,9.6z"/>
<path class="st0" d="M13.4,0.1c-0.3,0-0.5,0.1-0.6,0.4c0,0,0,0,0,0.1C12.6,3.7,11.3,6.7,9,9c-2.3,2.3-5.3,3.6-8.5,3.8
	C0.2,12.8,0,13,0,13.3c0,0,0,0,0,0.1c0.9,4.8,4.6,8.5,9.3,9.3c0.3,0,0.5-0.1,0.6-0.4c0,0,0,0,0-0.1c0.2-3.2,1.6-6.2,3.8-8.5l0,0
	c2.3-2.3,5.3-3.6,8.5-3.8c0.3,0,0.5-0.2,0.5-0.5c0,0,0-0.1,0-0.1C21.9,4.6,18.2,0.9,13.4,0.1z"/>
<path class="st0" d="M22.2,12.6c-5.1,0.5-9.1,4.5-9.6,9.6c0,0.3,0.2,0.5,0.5,0.5c0,0,0.1,0,0.1,0c4.9-0.8,8.8-4.7,9.6-9.6
	c0-0.3-0.1-0.5-0.4-0.6C22.3,12.6,22.2,12.6,22.2,12.6z"/>
<title>colour_mockups_20171208</title>
</svg>
