<svg id="Layer_1" data-name="Layer 1" xmlns="http://www.w3.org/2000/svg" viewBox="0 0 17.17 18"><defs><style>.cls-1{fill:#d7de27;}.cls-2{fill:#fff;}.cls-3{fill:none;}</style></defs><title>tennisBalls</title><circle class="cls-1" cx="8.58" cy="9.32" r="7.91"/><path class="cls-2" d="M8.58,1.9A7.41,7.41,0,1,1,1.17,9.32,7.41,7.41,0,0,1,8.58,1.9m0-1A8.41,8.41,0,1,0,17,9.32,8.42,8.42,0,0,0,8.58.9Z"/><path class="cls-3" d="M10.26,11A7.88,7.88,0,0,1,16,8.69,7.4,7.4,0,0,0,9.21,1.93s0,.07,0,.1A7.86,7.86,0,0,1,6.89,7.63,7.89,7.89,0,0,1,1.3,9.94H1.2A7.4,7.4,0,0,0,8,16.7,7.88,7.88,0,0,1,10.26,11Z"/><path class="cls-3" d="M11,11.71a6.89,6.89,0,0,0-2,5,7.38,7.38,0,0,0,7-7h-.11A6.89,6.89,0,0,0,11,11.71Z"/><path class="cls-3" d="M6.19,6.92A6.86,6.86,0,0,0,8.21,2s0-.08,0-.11a7.38,7.38,0,0,0-7,7A6.89,6.89,0,0,0,6.19,6.92Z"/><path class="cls-2" d="M6.89,7.63A7.86,7.86,0,0,0,9.21,2s0-.07,0-.1a7.45,7.45,0,0,0-1,0s0,.08,0,.11a6.86,6.86,0,0,1-2,4.89,6.89,6.89,0,0,1-5,2,7.45,7.45,0,0,0,0,1h.1A7.89,7.89,0,0,0,6.89,7.63Z"/><path class="cls-2" d="M10.26,11A7.88,7.88,0,0,0,8,16.7a7.44,7.44,0,0,0,1,0,6.89,6.89,0,0,1,6.9-7H16a7.44,7.44,0,0,0,0-1A7.88,7.88,0,0,0,10.26,11Z"/></svg>