<svg id="Layer_1" data-name="Layer 1" xmlns="http://www.w3.org/2000/svg" viewBox="0 0 22.76 22.75"><defs><style>.cls-1{fill:#b3b3b3;}</style></defs><title>colour_mockups_20171208</title><path class="cls-1" d="M0,9.61a.5.5,0,0,0,.53.57A10.74,10.74,0,0,0,7.19,7.12,10.75,10.75,0,0,0,10.25.54.51.51,0,0,0,9.67,0,11.49,11.49,0,0,0,0,9.61Z"/><path class="cls-1" d="M13.45.06a.49.49,0,0,0-.57.47A13.37,13.37,0,0,1,9,9a13.18,13.18,0,0,1-8.48,3.8.5.5,0,0,0-.47.58,11.58,11.58,0,0,0,9.34,9.32.5.5,0,0,0,.58-.47,13.38,13.38,0,0,1,3.78-8.47h0a13.34,13.34,0,0,1,8.48-3.85.49.49,0,0,0,.47-.58A11.43,11.43,0,0,0,13.45.06Z"/><path class="cls-1" d="M22.21,12.56a10.69,10.69,0,0,0-9.6,9.64.51.51,0,0,0,.58.54,11.46,11.46,0,0,0,9.56-9.61A.5.5,0,0,0,22.21,12.56Z"/></svg>