<?xml version="1.0" encoding="utf-8"?>
<!-- Generator: Adobe Illustrator 21.0.0, SVG Export Plug-In . SVG Version: 6.00 Build 0)  -->
<svg version="1.1" id="Layer_1" xmlns="http://www.w3.org/2000/svg" xmlns:xlink="http://www.w3.org/1999/xlink" x="0px" y="0px"
	 viewBox="0 0 22.2 23.4" style="enable-background:new 0 0 22.2 23.4;" xml:space="preserve">
<style type="text/css">
	.st0{fill:#94D142;}
</style>
<title>colour_mockups_20171208</title>
<path class="st0" d="M21.5,10.4l-8-9.3c-1.1-1.3-3-1.5-4.3-0.4C9,0.8,8.9,1,8.8,1.1l-8,9.3c-1.1,1.3-0.9,3.2,0.4,4.3
	c0.5,0.4,1.2,0.7,1.9,0.7h4.6V20c0,1.9,1.5,3.4,3.4,3.4s3.4-1.5,3.4-3.4l0,0v-4.6h4.6c1.7,0,3.1-1.4,3-3.1
	C22.2,11.6,21.9,11,21.5,10.4L21.5,10.4z"/>
</svg>
