<?xml version="1.0" encoding="utf-8"?>
<!-- Generator: Adobe Illustrator 21.0.0, SVG Export Plug-In . SVG Version: 6.00 Build 0)  -->
<svg version="1.1" id="Layer_1" xmlns="http://www.w3.org/2000/svg" xmlns:xlink="http://www.w3.org/1999/xlink" x="0px" y="0px"
	 viewBox="0 0 20.9 12.5" style="enable-background:new 0 0 20.9 12.5;" xml:space="preserve">
<style type="text/css">
	.st0{fill:#1BAAA5;}
</style>
<title>colour_mockups_20171208</title>
<path class="st0" d="M0.4,12.1L0.4,12.1c0.5,0.5,1.4,0.5,1.9,0c0,0,0,0,0,0l7.1-7.7c0.5-0.6,1.4-0.6,1.9-0.1c0,0,0.1,0.1,0.1,0.1
	l7.1,7.7c0.5,0.5,1.3,0.6,1.9,0.1c0,0,0,0,0,0l0,0c0.5-0.5,0.6-1.3,0.1-1.9l-9.1-9.8c-0.5-0.6-1.4-0.6-1.9-0.1c0,0-0.1,0.1-0.1,0.1
	l-9.1,9.8C-0.1,10.8-0.1,11.6,0.4,12.1z"/>
</svg>
